<svg width="64" height="64" viewBox="0 0 64 64" xmlns="http://www.w3.org/2000/svg">
  <defs>
    <filter id="shadow" x="-20%" y="-20%" width="140%" height="140%">
      <feDropShadow dx="2" dy="2" stdDeviation="1" flood-color="#000" flood-opacity="0.3"/>
    </filter>
  </defs>

  <!-- Palette Body shaped like a kidney bean with a hole -->
  <path d="M32 4 C14 4 2 16 2 34 C2 48 12 58 24 58 C29 58 32 54 32 50 C32 46 36 42 40 42 C44 42 48 46 48 50 C48 54 52 58 58 58 C66 58 62 40 62 34 C62 16 50 4 32 4 Z M 48 48 C 50 48 52 50 52 52 C 52 54 50 56 48 56 C 46 56 44 54 44 52 C 44 50 46 48 48 48 Z" 
        fill="#f4a460" stroke="#8b4513" stroke-width="2" fill-rule="evenodd" filter="url(#shadow)"/>

  <!-- Paint Blobs -->
  <circle cx="16" cy="34" r="5" fill="#ff4d4d" stroke="#b22222" stroke-width="1"/>
  <circle cx="22" cy="18" r="5" fill="#4dff4d" stroke="#006400" stroke-width="1"/>
  <circle cx="38" cy="14" r="5" fill="#4d4dff" stroke="#00008b" stroke-width="1"/>
  <circle cx="16" cy="48" r="5" fill="#ffff4d" stroke="#b8860b" stroke-width="1"/>

  <!-- Paintbrush -->
  <g transform="translate(40, 20) rotate(-45)">
    <rect x="-2" y="-10" width="4" height="20" fill="#8b4513" rx="1"/>
    <rect x="-2" y="10" width="4" height="4" fill="#a9a9a9"/>
    <path d="M-2 14 L2 14 L0 20 Z" fill="#ff4d4d"/> 
  </g>
</svg>
